<svg width="102" height="42" viewBox="0 0 102 42" fill="none" xmlns="http://www.w3.org/2000/svg">
<rect width="46" height="42" rx="10" fill="url(#paint0_linear_102_161)"/>
<path d="M17.8482 32.3438L30.592 21.4234C30.7973 21.2474 30.9621 21.0291 31.0751 20.7834C31.1881 20.5377 31.2466 20.2704 31.2466 20C31.2466 19.7296 31.1881 19.4623 31.0751 19.2166C30.9621 18.9709 30.7973 18.7526 30.592 18.5766L17.8482 7.65626C16.6318 6.61407 14.7529 7.47813 14.7529 9.0797V30.9234C14.7529 32.525 16.6318 33.3891 17.8482 32.3438Z" fill="#699BF7"/>
<rect x="56" width="46" height="42" rx="10" fill="url(#paint1_linear_102_161)"/>
<path d="M84.1518 7.65624L71.408 18.5766C71.2027 18.7526 71.0379 18.9709 70.9249 19.2166C70.8119 19.4623 70.7534 19.7296 70.7534 20C70.7534 20.2704 70.8119 20.5377 70.9249 20.7834C71.0379 21.0291 71.2027 21.2474 71.408 21.4234L84.1518 32.3437C85.3682 33.3859 87.2471 32.5219 87.2471 30.9203V9.07655C87.2471 7.47499 85.3682 6.61093 84.1518 7.65624Z" fill="white"/>
<defs>
<linearGradient id="paint0_linear_102_161" x1="-1.96354e-07" y1="42" x2="46" y2="3.5" gradientUnits="userSpaceOnUse">
<stop stop-color="#6D62F5"/>
<stop offset="1" stop-color="#3124C4"/>
</linearGradient>
<linearGradient id="paint1_linear_102_161" x1="56" y1="42" x2="102" y2="3.5" gradientUnits="userSpaceOnUse">
<stop stop-color="#6D62F5"/>
<stop offset="1" stop-color="#3124C4"/>
</linearGradient>
</defs>
</svg>
